<?xml version="1.0" standalone="no"?>
<!DOCTYPE svg PUBLIC "-//W3C//DTD SVG 20010904//EN"
 "http://www.w3.org/TR/2001/REC-SVG-20010904/DTD/svg10.dtd">
<svg version="1.0" xmlns="http://www.w3.org/2000/svg"
 width="2000.000000pt" height="2000.000000pt" viewBox="0 0 2000.000000 2000.000000"
 preserveAspectRatio="xMidYMid meet">

<g transform="translate(0.000000,2000.000000) scale(0.100000,-0.100000)"
fill="#000000" stroke="none">
<path d="M13035 14974 c-138 -19 -193 -29 -276 -50 -317 -79 -607 -233 -927
-491 l-24 -19 69 -52 c37 -28 82 -63 100 -78 l32 -26 106 79 c245 185 518 306
807 359 119 22 353 29 478 15 204 -23 434 -86 608 -166 39 -19 72 -36 72 -38
0 -2 -44 9 -97 25 -421 125 -834 128 -1198 7 -187 -62 -482 -230 -622 -353
l-52 -47 43 -62 c238 -341 273 -800 91 -1180 -179 -375 -562 -638 -967 -664
l-96 -6 -11 -61 c-23 -137 -52 -351 -70 -509 -11 -93 -22 -171 -24 -174 -19
-18 -20 601 -1 709 l6 36 -48 7 c-27 3 -92 17 -144 30 -52 13 -98 21 -101 17
-8 -8 -27 -180 -74 -642 -66 -651 -123 -959 -232 -1249 -39 -107 -118 -269
-168 -347 -42 -65 -48 -87 -40 -132 6 -30 39 -69 193 -226 201 -203 243 -233
300 -216 18 4 70 32 116 60 209 126 488 221 828 284 190 35 377 59 788 101
195 19 427 45 515 56 962 121 1543 367 2046 869 439 437 677 910 720 1432 25
300 -41 659 -181 979 -159 362 -441 748 -743 1017 -414 368 -856 598 -1312
683 -105 20 -429 34 -510 23z m875 -859 c36 -37 33 -89 -8 -126 -18 -16 -41
-29 -52 -29 -33 0 -71 23 -86 51 -17 34 -17 57 0 88 30 55 99 62 146 16z
m-589 -74 c60 -61 24 -151 -61 -151 -56 0 -90 34 -90 89 0 32 6 44 31 65 41
35 83 34 120 -3z m-577 -83 c24 -26 27 -37 22 -67 -6 -42 -46 -81 -82 -81 -86
0 -130 91 -75 154 39 44 90 42 135 -6z m1665 -344 c81 -68 -4 -198 -98 -150
-89 47 -56 172 46 175 12 1 35 -11 52 -25z m-575 -85 c35 -41 34 -83 -3 -120
-61 -60 -151 -24 -151 61 0 56 34 90 89 90 32 0 44 -6 65 -31z m-592 -68 c25
-22 32 -36 32 -66 0 -30 -7 -44 -32 -66 -35 -32 -57 -35 -97 -17 -28 13 -55
55 -55 85 1 45 50 92 97 93 13 0 37 -13 55 -29z m-583 -77 c65 -54 28 -154
-57 -154 -86 0 -126 100 -61 154 17 15 43 26 59 26 16 0 42 -11 59 -26z m2262
-283 c60 -61 24 -151 -61 -151 -56 0 -90 34 -90 89 0 32 6 44 31 65 41 35 83
34 120 -3z m-576 -83 c22 -26 26 -39 21 -67 -15 -95 -139 -109 -176 -21 -24
59 19 120 86 120 35 0 47 -5 69 -32z m-595 -65 c74 -67 8 -184 -86 -153 -69
23 -86 99 -35 151 38 38 80 39 121 2z m-576 -84 c35 -41 34 -83 -3 -120 -60
-60 -151 -23 -151 61 0 56 34 90 89 90 32 0 44 -6 65 -31z m-611 -50 c28 -13
57 -58 57 -89 0 -28 -61 -90 -89 -90 -51 0 -102 49 -101 97 1 43 50 92 92 93
9 0 28 -5 41 -11z m2255 -280 c43 -15 67 -68 52 -115 -12 -35 -51 -64 -87 -64
-10 0 -32 9 -50 19 -58 36 -53 124 10 155 38 19 37 19 75 5z m-559 -95 c25
-21 31 -33 31 -65 0 -55 -34 -89 -90 -89 -85 0 -121 90 -61 151 37 37 79 38
120 3z m-576 -85 c37 -40 36 -82 -2 -120 -18 -17 -40 -29 -56 -29 -90 0 -134
103 -69 161 41 36 86 32 127 -12z m-609 -50 c14 -7 32 -26 40 -43 37 -79 -41
-157 -120 -120 -59 28 -71 98 -25 145 31 31 64 36 105 18z m-560 -95 c37 -37
35 -86 -3 -125 -37 -37 -79 -38 -120 -3 -25 21 -31 33 -31 65 0 83 95 121 154
63z m-605 -58 c28 -15 51 -53 51 -86 0 -11 -13 -34 -29 -52 -22 -25 -36 -32
-66 -32 -30 0 -44 7 -66 32 -43 48 -33 108 22 138 31 17 54 17 88 0z m2865
-227 c15 -17 26 -43 26 -59 0 -16 -11 -42 -26 -59 -21 -25 -33 -31 -65 -31
-55 0 -89 34 -89 90 0 56 34 90 89 90 32 0 44 -6 65 -31z m-588 -73 c37 -37
42 -62 20 -105 -14 -26 -53 -51 -81 -51 -46 0 -95 51 -95 101 0 31 62 89 95
89 17 0 39 -12 61 -34z m-582 -72 c35 -36 36 -95 1 -129 -55 -56 -155 -15
-155 62 0 25 8 43 29 64 39 38 88 40 125 3z m-615 -55 c63 -22 80 -102 32
-150 -39 -38 -80 -39 -123 0 -26 23 -32 36 -31 65 1 39 24 73 58 87 27 11 28
11 64 -2z m-569 -84 c34 -18 55 -71 41 -106 -25 -68 -105 -83 -153 -30 -38 42
-37 83 1 122 33 33 67 37 111 14z m1694 -371 c37 -37 35 -86 -3 -125 -60 -59
-151 -22 -151 63 0 82 95 120 154 62z m-605 -58 c27 -14 51 -53 51 -82 0 -46
-52 -94 -101 -94 -31 0 -89 62 -89 95 0 33 58 95 89 95 12 0 34 -6 50 -14z
m-565 -91 c36 -33 37 -95 1 -130 -37 -38 -95 -35 -129 6 -35 41 -34 83 3 120
38 38 87 39 125 4z m-1445 -429 l334 -333 4 -49 c3 -37 -1 -57 -16 -81 -27
-43 -59 -58 -166 -77 -131 -24 -390 -89 -566 -142 -85 -25 -168 -46 -185 -46
-38 0 -88 25 -108 54 -32 46 -30 80 18 240 64 216 100 360 136 533 16 83 36
161 43 174 19 38 66 61 122 61 l49 0 335 -334z"/>
<path d="M4493 13808 c-271 -322 -456 -641 -572 -984 -156 -461 -156 -905 0
-1350 71 -206 228 -483 399 -704 83 -107 339 -368 446 -453 272 -218 646 -407
1019 -515 326 -96 632 -145 1355 -217 569 -57 798 -91 1040 -154 233 -61 457
-152 620 -254 100 -63 145 -65 201 -8 38 37 46 61 33 96 -16 40 -255 171 -435
238 -300 112 -591 165 -1314 237 -220 22 -454 47 -520 56 -810 103 -1319 283
-1780 628 -118 89 -376 335 -466 446 -252 309 -417 617 -499 933 -164 631 -10
1304 444 1935 110 153 109 152 103 152 -3 0 -36 -37 -74 -82z"/>
<path d="M10133 9676 c-23 -20 -28 -32 -28 -70 l0 -46 280 -280 c278 -277 281
-280 322 -280 57 0 92 31 100 88 l6 44 -284 284 c-282 281 -285 284 -326 284
-30 0 -50 -7 -70 -24z"/>
<path d="M9166 8531 c-96 -96 -157 -164 -154 -173 7 -16 531 -358 550 -358 7
0 85 72 173 160 138 138 158 162 145 173 -17 16 -525 346 -543 353 -7 2 -84
-67 -171 -155z"/>
<path d="M8865 8230 l-29 -31 229 -229 c127 -127 234 -230 240 -230 16 0 158
146 154 159 -5 13 -538 361 -554 361 -6 0 -24 -14 -40 -30z"/>
<path d="M8579 8121 c-22 -22 -29 -39 -29 -67 0 -37 12 -50 282 -321 281 -281
283 -283 325 -283 63 0 98 34 98 94 l0 46 -280 280 c-280 280 -281 280 -324
280 -34 0 -49 -6 -72 -29z"/>
<path d="M13035 6890 c-307 -49 -536 -257 -619 -565 -9 -33 -19 -109 -22 -170
-10 -183 29 -297 133 -396 110 -104 280 -151 473 -132 391 39 651 317 686 733
22 257 -110 454 -344 515 -77 20 -228 27 -307 15z m214 -253 c78 -51 110 -130
111 -262 0 -288 -181 -525 -401 -525 -98 0 -167 40 -212 125 -19 35 -22 56
-22 175 0 106 4 147 19 190 56 165 158 279 286 321 14 5 60 7 102 5 64 -2 84
-7 117 -29z"/>
<path d="M11310 6865 c0 -9 -268 -1170 -276 -1197 -5 -17 7 -18 150 -18 l155
0 9 33 c5 17 29 119 53 225 l43 192 91 0 90 0 115 -225 115 -225 173 0 c94 0
172 2 172 3 0 2 -62 118 -139 258 l-139 254 78 37 c98 47 180 121 217 195 39
81 45 207 13 281 -36 83 -110 137 -232 168 -49 13 -133 17 -375 21 -172 3
-313 2 -313 -2z m540 -247 c107 -54 87 -205 -35 -267 -44 -23 -63 -26 -182
-29 -88 -3 -133 0 -133 7 0 5 16 78 36 161 l36 150 117 0 c101 0 123 -3 161
-22z"/>
<path d="M13954 6793 c4 -43 15 -289 26 -548 11 -258 23 -498 26 -532 l6 -63
171 0 172 0 195 400 c107 220 197 400 200 400 4 0 16 -163 28 -362 13 -200 25
-380 28 -401 l6 -37 166 2 166 3 292 600 c161 330 293 603 293 608 1 4 -70 6
-156 5 l-157 -3 -181 -408 c-100 -224 -185 -410 -187 -413 -7 -6 -16 134 -28
466 -6 151 -13 294 -16 318 l-5 42 -153 0 -152 0 -199 -407 c-109 -225 -202
-412 -207 -418 -4 -5 -8 179 -8 408 l0 417 -166 0 -165 0 5 -77z"/>
</g>
</svg>
